<svg width="35" height="35" viewBox="0 0 35 35" xmlns="http://www.w3.org/2000/svg"><path fill="#FCEA2B" d="M21.41 25.013c.21 2.135 1.479 4.548 5.295 6.958a.481.481 0 0 1-.184.884c-.826.131-1.676.201-2.541.201-8.787 0-15.909-6.963-15.909-15.556 0-8.591 7.124-15.556 15.909-15.556.865 0 1.713.07 2.541.201a.488.488 0 0 1 .254.84c-1.962 1.806-3.517 3.871-4.611 6.268a4.881 4.881 0 0 0-.198 3.582c.406 1.206 1.129 2.791 2.391 4.179 2.128 2.34-1.732 2.613-1.732 2.613s-1.53.284-.243 1.671c.565.609.385.954-.084 1.313 1.586 1.389-.887 2.403-.887 2.403"/><path fill="#F1B31C" d="M26.269 2.1c-.859-.147-1.58-.156-2.483-.156C15.195 1.944 8.23 8.907 8.23 17.5s6.963 15.556 15.556 15.556c.835 0 1.657-.065 2.455-.194 0 0 .334-.15.378-.571 0 0-1.479.166-2.236.166-8.262 0-14.957-6.697-14.957-14.957S16.119 2.541 24.381 2.541c.814 0 1.61.065 2.389.189"/><g/><g/><g/><path d="M18.959 13.246a1.46 1.46 0 0 1-1.459 1.457 1.46 1.46 0 0 1-1.46-1.458 1.46 1.46 0 0 1 2.917 0z"/><path fill="none" stroke="#000" stroke-linecap="round" stroke-linejoin="round" stroke-miterlimit="10" stroke-width=".972" d="M21.556 25.013c.201 2.032 1.36 4.317 4.762 6.61.562.378.331 1.248-.343 1.325a16.158 16.158 0 0 1-1.848.105c-8.788.003-15.913-6.962-15.913-15.553 0-8.591 7.124-15.556 15.909-15.556.684 0 1.355.044 2.014.126a.731.731 0 0 1 .415 1.26c-1.792 1.726-3.222 3.68-4.247 5.926a4.872 4.872 0 0 0-.198 3.573c.404 1.206 1.129 2.795 2.392 4.183 2.128 2.34-1.732 2.613-1.732 2.613s-1.53.284-.243 1.671c.565.607.133 1.176-.334 1.535-.506.389-1.134.581-1.771.604-.793.03-1.923-.131-2.774-1.078m3.908 2.653s2.476-1.011.887-2.403"/><path fill="none" stroke="#000" stroke-linecap="round" stroke-linejoin="round" stroke-miterlimit="10" stroke-width=".972" d="M19.824 9.662s-2.324-1.458-4.648.927"/></svg>